<svg fill="#001eff" height="193px" width="193px" version="1.1" id="Capa_1" xmlns="http://www.w3.org/2000/svg" xmlns:xlink="http://www.w3.org/1999/xlink" viewBox="-102.9 -102.9 695.80 695.80" xml:space="preserve" stroke="#001eff" transform="matrix(1, 0, 0, 1, 0, 0)"><g id="SVGRepo_bgCarrier" stroke-width="0" transform="translate(0,0), scale(1)"><rect x="-102.9" y="-102.9" width="695.80" height="695.80" rx="347.9" fill="#e6e6e6" strokewidth="0"></rect></g><g id="SVGRepo_tracerCarrier" stroke-linecap="round" stroke-linejoin="round" stroke="#CCCCCC" stroke-width="2.94"></g><g id="SVGRepo_iconCarrier"> <g> <path d="M327.08,180.984H192.677L161.05,309.958h133.984L327.08,180.984z M180.58,294.646l24.12-98.35h102.791l-24.419,98.35 H180.58z"></path> <path d="M60.517,490h72.241l32.763-133.386h102.492L235.639,490h72.211l32.763-133.386h117.625v-61.968H355.702l24.434-98.35 h78.103v-61.968h-63.044L427.957,0h-72.615l-32.763,134.328H219.728L252.492,0h-72.256l-32.748,134.328H31.762v61.968h100.683 l-24.12,98.35H31.762v61.968h61.519L60.517,490z M47.074,341.301v-31.343h73.273l31.627-128.975h-104.9v-31.343H159.51 l32.748-134.328h40.734l-32.763,134.328h134.373l32.763-134.328h41.093l-32.763,134.328h67.231v31.343h-74.753l-32.061,128.975 h106.814v31.343H328.621l-32.763,133.386h-40.749l32.375-133.386H153.529l-32.763,133.386H80.047l32.763-133.386H47.074z"></path> </g> </g></svg>